<svg width="30" height="30" viewBox="0 0 30 30" fill="none" xmlns="http://www.w3.org/2000/svg">
<g clip-path="url(#clip0_11202_8277)">
<path d="M29.9963 15.0001C29.9963 23.1799 23.3655 29.8108 15.1857 29.8108C14.8785 29.8108 14.5739 29.8017 14.2717 29.783C13.0046 29.7061 11.7799 29.4693 10.6186 29.0926C10.1768 28.95 9.74375 28.7861 9.32137 28.6042C4.05823 26.333 0.375 21.0967 0.375 15.0001C0.375 6.82031 7.00585 0.189453 15.1857 0.189453C23.3655 0.189453 29.9963 6.82031 29.9963 15.0001Z" fill="#33ADC1"/>
<path d="M14.2728 29.783C12.5232 29.6765 10.856 29.2661 9.32243 28.6042C15.0579 20.8719 5.12891 13.507 5.12891 13.507L6.57594 13.1497L10.1349 12.2715C10.1349 12.2713 20.8487 18.8067 14.2728 29.783Z" fill="#EAE0D3"/>
<path d="M10.6196 29.0923C10.1778 28.9497 9.74481 28.7859 9.32243 28.6039C15.0579 20.8716 5.12891 13.5067 5.12891 13.5067L6.57594 13.1494C6.92668 13.4118 7.41753 13.7533 7.91856 14.2217C10.5301 16.6611 14.3187 21.8522 10.6196 29.0923Z" fill="#D6C8B0"/>
<path d="M13.7077 8.43209C13.7077 11.6299 11.1155 14.222 7.91751 14.222C4.71971 14.222 2.12757 11.6299 2.12757 8.43209C2.12757 7.95456 2.18498 7.49083 2.29436 7.04698C2.40306 6.60335 2.56329 6.17962 2.76759 5.783L0.375 3.39041L4.29597 3.91449L2.28464 1.42089L6.88269 2.73391L6.38143 0.189453C6.38143 0.189453 10.3815 2.40192 12.2821 4.62727C12.4261 4.79225 12.5603 4.96581 12.6853 5.1466C13.3298 6.07995 13.7077 7.2115 13.7077 8.43209Z" fill="#EAE0D3"/>
<path d="M11.0274 7.25014C11.0274 8.0332 10.3926 8.66824 9.60951 8.66824C8.82622 8.66824 8.19141 8.0332 8.19141 7.25014C8.19141 6.46684 8.82622 5.83203 9.60951 5.83203C10.3926 5.83203 11.0274 6.46684 11.0274 7.25014Z" fill="#2F373B"/>
<path d="M24.3222 8.18568C23.7401 8.48987 23.1265 8.42094 22.6338 8.25754C22.0578 8.06726 21.6478 7.74929 21.6478 7.74929C21.6478 7.74929 19.5744 5.71377 21.1696 4.82765C21.6514 4.56053 22.0415 4.56166 22.3509 4.69454H22.3516C23.068 5.00167 23.3557 6.00937 23.3557 6.00937C23.3557 6.00937 23.9331 4.51217 25.2104 4.96551C26.487 5.41817 25.5839 7.52623 24.3222 8.18568Z" fill="#FF648D"/>
<path d="M22.6338 8.25755C22.0578 8.06726 21.6478 7.74929 21.6478 7.74929C21.6478 7.74929 19.5744 5.71377 21.1696 4.82765C21.6514 4.56053 22.0415 4.56166 22.3509 4.69454C21.6449 4.65477 21.6225 7.25662 22.6338 8.25755Z" fill="#EA2F69"/>
<path d="M10.6266 6.79744C10.6266 7.04219 10.4282 7.24061 10.1834 7.24061C9.93866 7.24061 9.74023 7.04219 9.74023 6.79744C9.74023 6.55291 9.93866 6.35449 10.1834 6.35449C10.4282 6.35449 10.6266 6.55291 10.6266 6.79744Z" fill="white"/>
<path d="M22.1648 8.87158C22.1648 11.0316 16.2856 17.5899 20.1261 20.3077C21.0862 20.9873 22.1458 21.2088 23.1956 21.159C24.2451 21.209 25.3048 20.9873 26.265 20.3077C30.1053 17.5899 24.2261 11.0316 24.2261 8.87158" fill="#FF648D"/>
<path d="M23.0367 21.1638C22.0387 21.1855 21.0375 20.9529 20.1261 20.3077C16.2856 17.5899 22.165 11.0314 22.165 8.87158H22.7951C22.7951 11.0314 20.5105 17.5899 22.003 20.3077C22.3277 20.8989 22.6819 21.1439 23.0367 21.1638Z" fill="#EA2F69"/>
<path d="M23.0352 21.1639C23.0878 21.1635 23.1405 21.1614 23.1931 21.1592C23.1405 21.1657 23.0878 21.1675 23.0352 21.1639Z" fill="#EA2F69"/>
<path d="M23.355 21.1639C23.3024 21.1675 23.2499 21.1657 23.1973 21.1592C23.2499 21.1614 23.3024 21.1635 23.355 21.1639Z" fill="#EA2F69"/>
<path d="M27.0613 8.4911L12.4086 10.9133C12.4086 10.9133 11.8972 10.1377 11.711 9.10942C11.5453 8.19256 11.6384 7.07458 12.5858 6.12744L27.0613 8.4911Z" fill="#FFD62C"/>
<path d="M27.0613 8.49121L12.4086 10.9134C12.4086 10.9134 11.8972 10.1378 11.7109 9.10953L27.0613 8.49121Z" fill="#FFB92E"/>
<path d="M7.91751 14.222C4.71971 14.222 2.12757 11.6299 2.12757 8.4321C2.12757 7.95457 2.18498 7.49084 2.29436 7.04699C2.40306 6.60336 2.56329 6.17963 2.76759 5.78301L0.375 3.39043L4.29597 3.9145L2.28464 1.4209L6.97218 4.05959C6.97218 4.05959 4.07699 5.12356 4.07699 8.49131C4.07699 11.8591 7.91751 14.222 7.91751 14.222Z" fill="#D6C8B0"/>
</g>
<defs>
<clipPath id="clip0_11202_8277">
<rect width="29.6213" height="29.6213" fill="white" transform="translate(0.375 0.189453)"/>
</clipPath>
</defs>
</svg>
